<svg xmlns="http://www.w3.org/2000/svg" height="40" viewBox="0 -960 960 960" width="40"><path d="M626.461-94.617 474.513-246.308l35.794-35.794 116.154 115.898 235.436-235.693 35.794 35.794-271.23 271.486ZM478.923-523.385l320.871-206.359H158.308l320.615 206.359Zm0 52.563L150.256-683.694v435.18q0 5.385 3.462 8.847 3.462 3.462 8.847 3.462h223.051l50.255 50.255H162.565q-25.788 0-44.176-18.388-18.388-18.387-18.388-44.176v-468.921q0-25.788 18.388-44.176t44.176-18.388h633.383q25.788 0 44.176 18.388 18.387 18.388 18.387 44.176v219.642l-50.255 50.255v-236.156L478.923-470.822Zm.667 11.001Zm-.667-63.564Zm.667 52.563Z"/></svg>