<svg xmlns="http://www.w3.org/2000/svg" height="40" viewBox="0 -960 960 960" width="40"><path d="m94.461-255.078-40.998-30.179 181.742-290.639 119.714 140 159.107-257.385 95.537 142.973q-13.589 1.795-26.191 5.141-12.603 3.346-25.038 7.961l-42.078-63.411-152.884 249.359-121.295-141-147.616 237.18ZM869.77-54.232 734.41-189.078q-19.513 14.282-42.282 21.692-22.769 7.41-47.231 7.41-64.657 0-109.892-45.257-45.234-45.258-45.234-109.948t45.257-109.869q45.258-45.179 109.948-45.179t109.869 45.234q45.179 45.235 45.179 109.892 0 24.846-7.808 47.808-7.807 22.961-22.064 43.132L905.768-90.231l-35.999 36ZM644.804-210.23q43.991 0 74.478-30.393 30.487-30.393 30.487-74.385 0-43.991-30.393-74.478-30.393-30.487-74.385-30.487-43.991 0-74.478 30.393-30.487 30.393-30.487 74.385 0 43.991 30.393 74.478 30.393 30.487 74.385 30.487Zm74.221-330.718q-12.487-4.872-25.499-7.038-13.013-2.167-26.679-3.577l198.692-314.204 40.998 30.178-187.512 294.641Z"/></svg>