<?xml version="1.0" encoding="UTF-8"?>
<!DOCTYPE svg PUBLIC "-//W3C//DTD SVG 1.1//EN" "http://www.w3.org/Graphics/SVG/1.1/DTD/svg11.dtd">
<!-- Creator: CorelDRAW 2021 (64-Bit) -->
<svg xmlns="http://www.w3.org/2000/svg" xml:space="preserve" width="4.2333mm" height="4.2333mm" version="1.1" style="shape-rendering:geometricPrecision; text-rendering:geometricPrecision; image-rendering:optimizeQuality; fill-rule:evenodd; clip-rule:evenodd"
viewBox="0 0 1.1 1.1"
 xmlns:xlink="http://www.w3.org/1999/xlink"
 xmlns:xodm="http://www.corel.com/coreldraw/odm/2003">
 <defs>
  <style type="text/css">
   <![CDATA[
    .fil0 {fill:#A19AD9}
   ]]>
  </style>
 </defs>
 <g id="Capa_x0020_1">
  <metadata id="CorelCorpID_0Corel-Layer"/>
  <path class="fil0" d="M0.06 0l0.72 0 0 0.22 -0.77 0 0 -0.17c0,-0.03 0.02,-0.06 0.06,-0.06zm-0.06 0.88l0 -0.11 0.21 0 0 0.11 0.57 0 0 0.22 -0.72 0c-0.03,0 -0.06,-0.02 -0.06,-0.06l0 -0.08 0 -0.08zm0.88 -0.66l0 -0.17c0,-0.03 0.02,-0.06 0.06,-0.06l0.11 0c0.03,0 0.06,0.02 0.06,0.06l0 0.11c0,0.03 -0.02,0.06 -0.06,0.06l-0.17 0zm0 0.11l0 0.77 0.17 0c0.03,0 0.06,-0.02 0.06,-0.06l0 -0.72 -0.22 0zm-0.88 0.11l0 -0.11 0.21 0 0 0.11 0.46 0 0 0.22 -0.67 0 0 -0.11 0 -0.11z"/>
 </g>
</svg>
