<?xml version="1.0" encoding="UTF-8"?>
<!DOCTYPE svg PUBLIC "-//W3C//DTD SVG 1.1//EN" "http://www.w3.org/Graphics/SVG/1.1/DTD/svg11.dtd">
<!-- Creator: CorelDRAW 2021 (64-Bit) -->
<svg xmlns="http://www.w3.org/2000/svg" xml:space="preserve" width="42.3333mm" height="42.3333mm" version="1.1" style="shape-rendering:geometricPrecision; text-rendering:geometricPrecision; image-rendering:optimizeQuality; fill-rule:evenodd; clip-rule:evenodd"
viewBox="0 0 102.03 102.03"
 xmlns:xlink="http://www.w3.org/1999/xlink"
 xmlns:xodm="http://www.corel.com/coreldraw/odm/2003">
 <defs>
  <style type="text/css">
   <![CDATA[
    .fil0 {fill:url(#id0)}
   ]]>
  </style>
  <linearGradient id="id0" gradientUnits="userSpaceOnUse" x1="-12.47" y1="-12.04" x2="155.34" y2="152.58">
   <stop offset="0" style="stop-opacity:1; stop-color:#619BFF"/>
   <stop offset="1" style="stop-opacity:1; stop-color:#FF73DE"/>
  </linearGradient>
 </defs>
 <g id="Capa_x0020_1">
  <metadata id="CorelCorpID_0Corel-Layer"/>
  <path class="fil0" d="M-0 40.81l0 -10.2 19.13 0 0 10.2 36.97 0 0 20.41 -56.1 0 0 -10.2 0 -10.2zm4.74 -40.81l61.58 0 0 20.41 -66.32 0 0 -15.31c0,-2.81 2.13,-5.1 4.74,-5.1zm-4.74 81.63l0 -10.2 19.13 0 0 10.2 47.11 0 0 20.41 -61.13 0c-2.81,0 -5.1,-2.3 -5.1,-5.1l0 -7.65 0 -7.65zm81.63 -61.22l0 -15.31c0,-2.81 2.3,-5.1 5.1,-5.1l10.2 0c2.81,0 5.1,2.3 5.1,5.1l0 10.2c0,2.81 -2.3,5.1 -5.1,5.1l-15.31 0zm0 10.2l0 71.42 15.31 0c2.81,0 5.1,-2.3 5.1,-5.1l0 -66.32 -20.41 0z"/>
 </g>
</svg>
