<?xml version="1.0" encoding="UTF-8"?>
<!DOCTYPE svg PUBLIC "-//W3C//DTD SVG 1.1//EN" "http://www.w3.org/Graphics/SVG/1.1/DTD/svg11.dtd">
<!-- Creator: CorelDRAW 2021 (64-Bit) -->
<svg xmlns="http://www.w3.org/2000/svg" xml:space="preserve" width="42.3584mm" height="42.3584mm" version="1.1" style="shape-rendering:geometricPrecision; text-rendering:geometricPrecision; image-rendering:optimizeQuality; fill-rule:evenodd; clip-rule:evenodd"
viewBox="0 0 89.13 89.13"
 xmlns:xlink="http://www.w3.org/1999/xlink"
 xmlns:xodm="http://www.corel.com/coreldraw/odm/2003">
 <defs>
  <style type="text/css">
   <![CDATA[
    .fil0 {fill:none}
    .fil1 {fill:url(#id0)}
   ]]>
  </style>
  <linearGradient id="id0" gradientUnits="userSpaceOnUse" x1="6.92" y1="7.17" x2="106.43" y2="104.8">
   <stop offset="0" style="stop-opacity:1; stop-color:#619BFF"/>
   <stop offset="1" style="stop-opacity:1; stop-color:#FF73DE"/>
  </linearGradient>
 </defs>
 <g id="Capa_x0020_1">
  <metadata id="CorelCorpID_0Corel-Layer"/>
  <rect class="fil0" width="89.13" height="89.13"/>
  <path class="fil1" d="M14.31 38.52l0 -6.05 11.34 0 0 6.05 21.93 0 0 12.1 -33.27 0 0 -6.05 0 -6.05zm2.81 -24.2l36.52 0 0 12.1 -39.33 0 0 -9.08c0,-1.66 1.26,-3.03 2.81,-3.03zm-2.81 48.41l0 -6.05 11.34 0 0 6.05 27.94 0 0 12.1 -36.25 0c-1.66,0 -3.03,-1.36 -3.03,-3.03l0 -4.54 0 -4.54zm48.41 -36.31l0 -9.08c0,-1.66 1.36,-3.03 3.03,-3.03l6.05 0c1.66,0 3.03,1.36 3.03,3.03l0 6.05c0,1.66 -1.36,3.03 -3.03,3.03l-9.08 0zm0 6.05l0 42.36 9.08 0c1.66,0 3.03,-1.36 3.03,-3.03l0 -39.33 -12.1 0z"/>
 </g>
</svg>
